<svg xmlns="http://www.w3.org/2000/svg" version="1.1" xmlns:xlink="http://www.w3.org/1999/xlink" xmlns:svgjs="http://svgjs.com/svgjs" width="1440" height="995" preserveAspectRatio="none" viewBox="0 0 1440 995">
    <g mask="url(&quot;#SvgjsMask2627&quot;)" fill="none">
        <rect width="1440" height="995" x="0" y="0" fill="url(#SvgjsLinearGradient2628)"></rect>
        <path d="M315.4 282.21a46.61 46.61 0 1 0-2.51-93.18z" stroke="#037b0b"></path>
        <path d="M212.95 919.41a49.78 49.78 0 1 0-55.95-82.35z" stroke="#d3b714"></path>
        <path d="M217.34 307.08L276.97 307.08L276.97 404.81L217.34 404.81z" fill="#037b0b"></path>
        <path d="M371.19 638.97 a87.82 87.82 0 1 0 175.64 0 a87.82 87.82 0 1 0 -175.64 0z" fill="#d3b714"></path>
        <path d="M960.37 647.45 a9.25 9.25 0 1 0 18.5 0 a9.25 9.25 0 1 0 -18.5 0z" fill="#037b0b"></path>
        <path d="M90.41 53.87a77.91 77.91 0 1 0 153.18-28.56z" fill="#037b0b"></path>
        <path d="M1101.61 514.5L1119.04 514.5L1119.04 531.93L1101.61 531.93z" stroke="#d3b714"></path>
        <path d="M505.34 905.11L551.81 905.11L551.81 932.48L505.34 932.48z" fill="#d3b714"></path>
        <path d="M433.79 17.6 a78.28 78.28 0 1 0 156.56 0 a78.28 78.28 0 1 0 -156.56 0z" fill="#037b0b"></path>
        <path d="M1292.2 713.17 a50.7 50.7 0 1 0 101.4 0 a50.7 50.7 0 1 0 -101.4 0z" fill="#d3b714"></path>
        <path d="M1404.21 839.9 a23.79 23.79 0 1 0 47.58 0 a23.79 23.79 0 1 0 -47.58 0z" fill="#d3b714"></path>
        <path d="M911.72 379.45L929.02 379.45L929.02 396.75L911.72 396.75z" fill="#d3b714"></path>
        <path d="M1119.96 742.94L1182.17 742.94L1182.17 805.15L1119.96 805.15z" fill="#037b0b"></path>
        <path d="M1088.59 322.43L1186.07 322.43L1186.07 419.91L1088.59 419.91z" stroke="rgba(231, 53, 93, 1)"></path>
        <path d="M243.92 180.92 a76.26 76.26 0 1 0 152.52 0 a76.26 76.26 0 1 0 -152.52 0z" fill="#037b0b"></path>
        <path d="M631.08 511.23L647.12 511.23L647.12 527.27L631.08 527.27z" stroke="#d3b714"></path>
        <path d="M735.29 533.5L820.95 533.5L820.95 621.83L735.29 621.83z" stroke="#d3b714"></path>
        <path d="M897.16 458.2L974.73 458.2L974.73 465.89L897.16 465.89z" stroke="#d3b714"></path>
        <path d="M464.06 355.21 a17.57 17.57 0 1 0 35.14 0 a17.57 17.57 0 1 0 -35.14 0z" stroke="rgba(231, 53, 93, 1)"></path>
    </g>
    <defs>
        <mask id="SvgjsMask2627">
            <rect width="1440" height="995" fill="#ffffff"></rect>
        </mask>
        <linearGradient x1="92.27%" y1="-11.18%" x2="7.73%" y2="111.18%" gradientUnits="userSpaceOnUse" id="SvgjsLinearGradient2628">
            <stop stop-color="rgba(14, 42, 71, 1)" offset="0.77"></stop>
            <stop stop-color="rgba(114, 0, 158, 1)" offset="0.89"></stop>
            <stop stop-color="rgba(114, 0, 158, 1)" offset="0.92"></stop>
            <stop stop-color="rgba(114, 0, 158, 1)" offset="0.92"></stop>
            <stop stop-color="rgba(114, 0, 158, 1)" offset="0.93"></stop>
        </linearGradient>
    </defs>
</svg>